<svg xmlns="http://www.w3.org/2000/svg" class="svg-sprite"><symbol class="svg-sprite" id="wr-logo-burger" viewBox="0 0 505 125"><g class="wr-logo-burger" fill-rule="evenodd"><path d="M199.246 124.986h35.33v-11.439h-18.31v-6.528h18.365V91.342h-18.365v-6.13h18.365V69.547H199.3l-.055 55.438zm97.528-11.685l-15.758-8.49a12.344 12.344 0 01-12.001 8.325c-7.996 0-12.81-6.295-12.81-13.798 0-7.502 5.06-13.798 12.81-13.798a12.645 12.645 0 0111.836 7.27l14.936-9.478a31.16 31.16 0 00-26.854-14.607c-17.83 0-30.448 13.716-30.448 30.613 0 10.767 4.869 20.19 13.112 25.635h34.905a29.968 29.968 0 0010.327-11.686l-.055.014zM404.452 47H386.06v-6.543h18.392V24.794H386.06v-6.117h18.392V3h-35.371v59.594h35.371V47zm73.116 58.977c5.226 1.467 9.724 2.194 9.724 4.731 0 1.797-2.29 3.594-5.225 3.594-3.511 0-7.27-2.29-9.958-6.611l-14.455 11.425A37.621 37.621 0 00464.1 125h33.74a19.202 19.202 0 007.159-15.197c0-12.234-9.875-15.828-17.83-18.118-5.39-1.55-9.875-2.441-9.875-5.061 0-1.797 1.865-3.347 4.65-3.347 3.428 0 6.857 2.538 8.818 6.035l13.455-10.437c-4.238-5.226-10.972-10.287-22.356-10.287-12.975 0-21.629 8.23-21.629 19.421.014 12.317 9.56 15.828 17.309 17.954l.027.014zM357.19 99.352A30.463 30.463 0 01343.475 125h-33.657c-12.277-7.995-17.169-23.568-11.668-37.147 5.5-13.579 19.85-21.357 34.23-18.554 14.38 2.803 24.757 15.402 24.755 30.053h.055zm-17.391 0c0-7.503-5.39-13.784-13.14-13.784-7.748 0-13.056 6.281-13.056 13.784 0 7.502 5.033 13.798 13.03 13.798 7.995 0 13.139-6.296 13.139-13.812l.027.014zm-10.972-66.699l19.01 29.955h16.17V3.014h-17.049v27.842L329.252 3.014h-17.473v59.58h16.98l.068-29.94zm-124.74 29.955l19.75-59.58h15.992l19.681 59.58h-17.13l-2.208-7.064h-16.98l-2.194 7.091-16.91-.027zm22.548-19.696h10.245l-5.02-17.158-5.225 17.158zM168.29 62.608l6.488-30.462 6.583 30.462h16.897l19.201-59.58h-17.02l-8.997 31.106-8.23-31.107h-16.76l-8.229 30.778-9.244-30.778H132l19.201 59.58h17.09zm110.805 0h-17.13V3.014h21.63c14.935 0 22.945 9.71 22.945 21.067 0 7.75-3.265 14.69-9.958 18.434l11.343 20.08h-19.201l-9.71-19.587.081 19.6zm0-31.71h4.39c3.538 0 6.857-2.126 6.857-6.447 0-4.32-3.264-6.364-6.858-6.364h-4.389v12.81zm146.931 31.71h-17.13V3.014h21.615c14.936 0 22.946 9.71 22.946 21.067 0 7.75-3.264 14.69-9.957 18.434l11.342 20.08h-19.201l-9.71-19.587.095 19.6zm0-31.71h4.39c3.538 0 6.857-2.126 6.857-6.447 0-4.32-3.264-6.364-6.858-6.364h-4.389v12.81zM408.965 125V69.548h19.434c16.966 0 30.516 12.906 30.516 29.79a29.146 29.146 0 01-14.689 25.648l-35.261.014zm16.91-11.85h3.525c7.996 0 13.14-6.282 13.14-13.798s-5.39-13.784-13.14-13.784h-3.524v27.582zm-65.064 11.836V69.548h21.697c14.936 0 22.932 9.724 22.932 21.067 0 7.75-3.264 14.69-9.957 18.448l8.997 15.91h-18.955l-7.653-15.43v15.43l-17.061.013zm17.061-27.554h4.39c3.524 0 6.857-2.126 6.857-6.447 0-4.32-3.278-6.364-6.858-6.364h-4.389v12.81zm-226.67 27.54V69.549h21.628c14.936 0 22.946 9.724 22.946 21.067 0 7.75-3.265 14.69-9.958 18.448l8.984 15.91h-18.886l-7.653-15.43v15.43h-17.062zm17.061-27.554h4.403c3.538 0 6.857-2.126 6.857-6.446s-3.264-6.364-6.857-6.364h-4.39l-.013 12.81z" class="text" fill-rule="nonzero"/><path d="M42.154 124.959H25.387C9.277 111.505-.02 91.625 0 70.677-.231 31.45 31.131.192 70.905 0c29.886-.056 56.604 18.556 66.818 46.548 10.215 27.991 1.736 59.361-21.204 78.452l-74.365-.041z" class="sun" fill-rule="nonzero"/><path d="M102 86.125V92H40v-5.875h62zm0-20.563v5.876H40v-5.876h62zM102 45v5.875H40V45h62z" class="burger"/></g></symbol><symbol class="svg-sprite" id="wr-logo" viewBox="0 0 505 125"><g id="wr-logo" stroke="none" stroke-width="1" fill="#FFF" fill-rule="nonzero"><path d="M199.246 124.986h35.33v-11.439h-18.31v-6.528h18.365V91.342h-18.365v-6.13h18.365V69.547H199.3l-.055 55.438zm97.528-11.685l-15.758-8.49a12.344 12.344 0 01-12.001 8.325c-7.996 0-12.81-6.295-12.81-13.798 0-7.502 5.06-13.798 12.81-13.798a12.645 12.645 0 0111.836 7.27l14.936-9.478a31.16 31.16 0 00-26.854-14.607c-17.83 0-30.448 13.716-30.448 30.613 0 10.767 4.869 20.19 13.112 25.635h34.905a29.968 29.968 0 0010.327-11.686l-.055.014zM404.452 47H386.06v-6.543h18.392V24.794H386.06v-6.117h18.392V3h-35.371v59.594h35.371V47zm73.116 58.977c5.226 1.467 9.724 2.194 9.724 4.731 0 1.797-2.29 3.594-5.225 3.594-3.511 0-7.27-2.29-9.958-6.611l-14.455 11.425A37.621 37.621 0 00464.1 125h33.74a19.202 19.202 0 007.159-15.197c0-12.234-9.875-15.828-17.83-18.118-5.39-1.55-9.875-2.441-9.875-5.061 0-1.797 1.865-3.347 4.65-3.347 3.428 0 6.857 2.538 8.818 6.035l13.455-10.437c-4.238-5.226-10.972-10.287-22.356-10.287-12.975 0-21.629 8.23-21.629 19.421.014 12.317 9.56 15.828 17.309 17.954l.027.014zM357.19 99.352A30.463 30.463 0 01343.475 125h-33.657c-12.277-7.995-17.169-23.568-11.668-37.147 5.5-13.579 19.85-21.357 34.23-18.554 14.38 2.803 24.757 15.402 24.755 30.053h.055zm-17.391 0c0-7.503-5.39-13.784-13.14-13.784-7.748 0-13.056 6.281-13.056 13.784 0 7.502 5.033 13.798 13.03 13.798 7.995 0 13.139-6.296 13.139-13.812l.027.014zm-10.972-66.699l19.01 29.955h16.17V3.014h-17.049v27.842L329.252 3.014h-17.473v59.58h16.98l.068-29.94zm-124.74 29.955l19.75-59.58h15.992l19.681 59.58h-17.13l-2.208-7.064h-16.98l-2.194 7.091-16.91-.027zm22.548-19.696h10.245l-5.02-17.158-5.225 17.158zM168.29 62.608l6.488-30.462 6.583 30.462h16.897l19.201-59.58h-17.02l-8.997 31.106-8.23-31.107h-16.76l-8.229 30.778-9.244-30.778H132l19.201 59.58h17.09zm110.805 0h-17.13V3.014h21.63c14.935 0 22.945 9.71 22.945 21.067 0 7.75-3.265 14.69-9.958 18.434l11.343 20.08h-19.201l-9.71-19.587.081 19.6zm0-31.71h4.39c3.538 0 6.857-2.126 6.857-6.447 0-4.32-3.264-6.364-6.858-6.364h-4.389v12.81zm146.931 31.71h-17.13V3.014h21.615c14.936 0 22.946 9.71 22.946 21.067 0 7.75-3.264 14.69-9.957 18.434l11.342 20.08h-19.201l-9.71-19.587.095 19.6zm0-31.71h4.39c3.538 0 6.857-2.126 6.857-6.447 0-4.32-3.264-6.364-6.858-6.364h-4.389v12.81zM408.965 125V69.548h19.434c16.966 0 30.516 12.906 30.516 29.79a29.146 29.146 0 01-14.689 25.648l-35.261.014zm16.91-11.85h3.525c7.996 0 13.14-6.282 13.14-13.798s-5.39-13.784-13.14-13.784h-3.524v27.582zm-65.064 11.836V69.548h21.697c14.936 0 22.932 9.724 22.932 21.067 0 7.75-3.264 14.69-9.957 18.448l8.997 15.91h-18.955l-7.653-15.43v15.43l-17.061.013zm17.061-27.554h4.39c3.524 0 6.857-2.126 6.857-6.447 0-4.32-3.278-6.364-6.858-6.364h-4.389v12.81zm-226.67 27.54V69.549h21.628c14.936 0 22.946 9.724 22.946 21.067 0 7.75-3.265 14.69-9.958 18.448l8.984 15.91h-18.886l-7.653-15.43v15.43h-17.062zm17.061-27.554h4.403c3.538 0 6.857-2.126 6.857-6.446s-3.264-6.364-6.857-6.364h-4.39l-.013 12.81z" id="text"/><path d="M42.154 124.959H25.387C9.277 111.505-.02 91.625 0 70.677-.231 31.45 31.131.192 70.905 0c29.886-.056 56.604 18.556 66.818 46.548 10.215 27.991 1.736 59.361-21.204 78.452l-74.365-.041z" id="sun"/></g></symbol><symbol class="svg-sprite" id="wr-sun" viewBox="0 0 100 88"><path d="M29.686 87.971H17.878A49.72 49.72 0 010 49.757C-.163 22.14 21.924.135 49.933 0 70.98-.04 89.795 13.064 96.988 32.77c7.194 19.706 1.223 41.79-14.932 55.23l-52.37-.029z"/></symbol></svg>